<svg width="48" height="48" viewBox="0 0 48 48" fill="none" xmlns="http://www.w3.org/2000/svg">
<g id="HourglassMedium">
<path id="Vector" d="M24 24L12.6 15.45C12.4148 15.3093 12.2643 15.1279 12.1603 14.9198C12.0563 14.7118 12.0014 14.4826 12 14.25V7.5C12 7.10218 12.158 6.72064 12.4393 6.43934C12.7206 6.15804 13.1022 6 13.5 6H34.5C34.8978 6 35.2794 6.15804 35.5607 6.43934C35.842 6.72064 36 7.10218 36 7.5V14.175C35.9986 14.4076 35.9437 14.6368 35.8397 14.8448C35.7357 15.0529 35.5852 15.2343 35.4 15.375L24 24Z" stroke="#B91C1C" stroke-width="2" stroke-linecap="round" stroke-linejoin="round"/>
<path id="Vector_2" d="M24 24L12.6 32.55C12.4148 32.6907 12.2643 32.8721 12.1603 33.0802C12.0563 33.2882 12.0014 33.5174 12 33.75V40.5C12 40.8978 12.158 41.2794 12.4393 41.5607C12.7206 41.842 13.1022 42 13.5 42H34.5C34.8978 42 35.2794 41.842 35.5607 41.5607C35.842 41.2794 36 40.8978 36 40.5V33.825C35.9986 33.5924 35.9437 33.3632 35.8397 33.1552C35.7357 32.9471 35.5852 32.7657 35.4 32.625L24 24Z" stroke="#B91C1C" stroke-width="2" stroke-linecap="round" stroke-linejoin="round"/>
<path id="Vector_3" d="M14.0059 16.5H33.9184" stroke="#B91C1C" stroke-width="2" stroke-linecap="round" stroke-linejoin="round"/>
<path id="Vector_4" d="M24 31.5V24" stroke="#B91C1C" stroke-width="2" stroke-linecap="round" stroke-linejoin="round"/>
</g>
</svg>
